<svg width="23" height="22" viewBox="0 0 23 22" fill="none" xmlns="http://www.w3.org/2000/svg">
<path d="M14.7179 10.8899C14.7179 10.0403 14.4227 9.31305 13.8323 8.70825C13.2419 8.10345 12.5147 7.80105 11.6507 7.80105C10.7867 7.80105 10.0595 8.10345 9.46914 8.70825C8.87874 9.31305 8.57634 10.0403 8.56194 10.8899C8.54754 11.7395 8.84994 12.4667 9.46914 13.0715C10.0883 13.6763 10.8155 13.9787 11.6507 13.9787C12.4859 13.9787 13.2131 13.6763 13.8323 13.0715C14.4515 12.4667 14.7467 11.7395 14.7179 10.8899ZM16.3811 10.8899C16.3811 12.2003 15.9203 13.3235 14.9987 14.2595C14.0771 15.1955 12.9611 15.6563 11.6507 15.6419C10.3403 15.6275 9.21714 15.1667 8.28114 14.2595C7.34514 13.3523 6.88434 12.2291 6.89874 10.8899C6.91314 9.55065 7.37394 8.42745 8.28114 7.52025C9.18834 6.61305 10.3115 6.15225 11.6507 6.13785C12.9899 6.12345 14.1059 6.58425 14.9987 7.52025C15.8915 8.45625 16.3523 9.57945 16.3811 10.8899ZM17.6987 5.94345C17.6987 6.24585 17.5907 6.50505 17.3747 6.72105C17.1587 6.93705 16.8923 7.04505 16.5755 7.04505C16.2587 7.04505 15.9995 6.93705 15.7979 6.72105C15.5963 6.50505 15.4883 6.24585 15.4739 5.94345C15.4595 5.64105 15.5675 5.38185 15.7979 5.16585C16.0283 4.94985 16.2875 4.84185 16.5755 4.84185C16.8635 4.84185 17.1299 4.94985 17.3747 5.16585C17.6195 5.38185 17.7275 5.64105 17.6987 5.94345ZM11.6507 3.28665C11.5931 3.28665 11.2835 3.28665 10.7219 3.28665H9.44754C9.15954 3.28665 8.77074 3.30105 8.28114 3.32985C7.79154 3.35865 7.38114 3.39465 7.04994 3.43785C6.71874 3.48105 6.43074 3.56025 6.18594 3.67545C5.78274 3.83385 5.42994 4.06425 5.12754 4.36665C4.82514 4.66905 4.58754 5.02185 4.41474 5.42505C4.32834 5.65545 4.25634 5.94345 4.19874 6.28905C4.14114 6.63465 4.09794 7.05225 4.06914 7.54185C4.04034 8.03145 4.03314 8.41305 4.04754 8.68665C4.06194 8.96025 4.06194 9.38505 4.04754 9.96105C4.03314 10.5371 4.03314 10.8467 4.04754 10.8899C4.06194 10.9331 4.06194 11.2427 4.04754 11.8187C4.03314 12.3947 4.03314 12.8195 4.04754 13.0931C4.06194 13.3667 4.06914 13.7483 4.06914 14.2379C4.06914 14.7275 4.11234 15.1451 4.19874 15.4907L4.41474 16.3547C4.58754 16.7579 4.82514 17.1107 5.12754 17.4131C5.42994 17.7155 5.78274 17.9459 6.18594 18.1043C6.41634 18.1907 6.70434 18.2699 7.04994 18.3419C7.39554 18.4139 7.80594 18.4499 8.28114 18.4499C8.75634 18.4499 9.14514 18.4643 9.44754 18.4931C9.74994 18.5219 10.1747 18.5219 10.7219 18.4931C11.2691 18.4643 11.5787 18.4643 11.6507 18.4931C11.7227 18.5219 12.0251 18.5219 12.5579 18.4931C13.0907 18.4643 13.5155 18.4643 13.8323 18.4931C14.1491 18.5219 14.5379 18.5075 14.9987 18.4499C15.4595 18.3923 15.8771 18.3563 16.2515 18.3419C16.6259 18.3275 16.9067 18.2483 17.0939 18.1043C17.4971 17.9459 17.8571 17.7155 18.1739 17.4131C18.4907 17.1107 18.7211 16.7579 18.8651 16.3547C18.9515 16.1243 19.0235 15.8363 19.0811 15.4907C19.1387 15.1451 19.1819 14.7275 19.2107 14.2379C19.2395 13.7483 19.2467 13.3667 19.2323 13.0931C19.2179 12.8195 19.2179 12.3947 19.2323 11.8187C19.2467 11.2427 19.2467 10.9331 19.2323 10.8899C19.2179 10.8467 19.2179 10.5371 19.2323 9.96105C19.2467 9.38505 19.2467 8.96025 19.2323 8.68665C19.2179 8.41305 19.2107 8.03145 19.2107 7.54185C19.2107 7.05225 19.1675 6.63465 19.0811 6.28905L18.8651 5.42505C18.7067 5.02185 18.4763 4.66905 18.1739 4.36665C17.8715 4.06425 17.5115 3.83385 17.0939 3.67545C16.8635 3.58905 16.5827 3.50985 16.2515 3.43785C15.9203 3.36585 15.5027 3.32985 14.9987 3.32985C14.4947 3.32985 14.1059 3.31545 13.8323 3.28665C13.5587 3.25785 13.1339 3.25785 12.5579 3.28665C11.9819 3.31545 11.6795 3.31545 11.6507 3.28665ZM20.8955 10.8899C20.8955 12.7331 20.8739 14.0075 20.8307 14.7131C20.7587 16.3835 20.2619 17.6795 19.3403 18.6011C18.4187 19.5227 17.1299 20.0195 15.4739 20.0915C14.7539 20.1347 13.4795 20.1562 11.6507 20.1562C9.82194 20.1562 8.54754 20.1347 7.82754 20.0915C6.15714 20.0051 4.86114 19.5083 3.93954 18.6011C3.01794 17.6939 2.52114 16.3979 2.44914 14.7131C2.40594 14.0075 2.38434 12.7331 2.38434 10.8899C2.38434 9.04665 2.40594 7.77225 2.44914 7.06665C2.52114 5.39625 3.01794 4.10025 3.93954 3.17865C4.86114 2.25705 6.15714 1.76025 7.82754 1.68825C8.53314 1.64505 9.80754 1.62345 11.6507 1.62345C13.4939 1.62345 14.7683 1.64505 15.4739 1.68825C17.1443 1.77465 18.4331 2.27145 19.3403 3.17865C20.2475 4.08585 20.7443 5.38185 20.8307 7.06665C20.8739 7.77225 20.8955 9.04665 20.8955 10.8899Z" fill="white"/>
</svg>
