<svg width="23" height="22" viewBox="0 0 23 22" fill="none" xmlns="http://www.w3.org/2000/svg">
<path d="M6.09394 3.37325C6.09394 3.94925 5.88523 4.43886 5.46783 4.84206C5.05042 5.24526 4.51787 5.44686 3.87017 5.44686C3.22247 5.44686 2.69711 5.24526 2.2941 4.84206C1.89108 4.43886 1.68958 3.94205 1.68958 3.35166C1.68958 2.76126 1.89108 2.27166 2.2941 1.88285C2.69711 1.49405 3.22966 1.29966 3.89176 1.29966C4.55385 1.29966 5.07921 1.49405 5.46783 1.88285C5.85645 2.27166 6.06515 2.76846 6.09394 3.37325ZM1.81912 20.4373V7.08846H5.9644V20.4373H1.81912ZM8.42566 11.3653C8.42566 10.1269 8.39687 8.70126 8.3393 7.08846H11.9232L12.1391 8.94606H12.2255C13.0891 7.50606 14.4565 6.78606 16.3276 6.78606C17.7669 6.78606 18.9256 7.26846 19.8036 8.23326C20.6816 9.19806 21.1206 10.6309 21.1206 12.5317V20.4373H16.9753V13.0501C16.9753 11.1205 16.27 10.1557 14.8595 10.1557C13.8519 10.1557 13.1467 10.6741 12.7437 11.7109C12.6573 11.8837 12.6141 12.2293 12.6141 12.7477V20.4373H8.42566V11.3653Z" fill="white"/>
</svg>
