<svg width="22" height="22" viewBox="0 0 22 22" fill="none" xmlns="http://www.w3.org/2000/svg">
<g clip-path="url(#clip0_1_897)">
<path d="M8.65128 13.6764L14.4806 10.674L8.65128 7.62836V13.6764ZM10.875 3.28676C12.228 3.28676 13.5306 3.30836 14.7828 3.35156C16.0351 3.39476 16.9562 3.43076 17.5464 3.45956L18.4315 3.50276L18.6259 3.52436C18.7554 3.53876 18.849 3.55316 18.9065 3.56756C18.9641 3.58196 19.0577 3.59636 19.1872 3.61076C19.3167 3.62516 19.4319 3.66116 19.5326 3.71876C19.6334 3.77636 19.7485 3.82676 19.8781 3.86996C20.0076 3.91316 20.13 3.99236 20.2451 4.10756C20.3603 4.22276 20.4754 4.33076 20.5905 4.43156C20.6481 4.47476 20.7129 4.54676 20.7849 4.64756C20.8568 4.74836 20.972 4.98596 21.1303 5.36036C21.2886 5.73476 21.3966 6.13796 21.4541 6.56996C21.5117 7.08836 21.5621 7.63556 21.6053 8.21156C21.6485 8.78756 21.67 9.24836 21.67 9.59396V11.7108C21.6844 12.8772 21.6125 14.0436 21.4541 15.21C21.3966 15.642 21.2958 16.038 21.1519 16.398C21.008 16.758 20.8784 17.01 20.7633 17.154L20.5905 17.3484C20.4898 17.4636 20.3746 17.5716 20.2451 17.6724C20.1156 17.7732 19.9932 17.8452 19.8781 17.8884C19.7629 17.9316 19.6478 17.982 19.5326 18.0396C19.4175 18.0972 19.3023 18.1332 19.1872 18.1476L18.4315 18.2556C16.4165 18.414 13.8976 18.4932 10.875 18.4932L6.53546 18.4068C5.29763 18.378 4.4988 18.3492 4.13897 18.3204L3.10265 18.2124C2.81478 18.1692 2.59888 18.1332 2.45495 18.1044C2.31101 18.0756 2.10231 17.9892 1.82884 17.8452C1.55536 17.7012 1.33227 17.5356 1.15955 17.3484C1.10197 17.3052 1.0372 17.2332 0.965236 17.1324C0.89327 17.0316 0.778123 16.794 0.619796 16.4196C0.46147 16.0452 0.35352 15.642 0.295946 15.21C0.238373 14.6916 0.187996 14.1444 0.144816 13.5684C0.101636 12.9924 0.0800462 12.5316 0.0800462 12.186V10.0692C0.0656529 8.90276 0.13762 7.73636 0.295946 6.56996C0.35352 6.12356 0.454273 5.72756 0.598206 5.38196C0.74214 5.03636 0.87168 4.78436 0.986826 4.62596L1.15955 4.43156C1.27469 4.30196 1.38984 4.19396 1.50499 4.10756C1.62013 4.02116 1.74248 3.94196 1.87202 3.86996C2.00156 3.79796 2.1167 3.74756 2.21746 3.71876L2.5629 3.61076C2.69244 3.56756 2.78599 3.55316 2.84357 3.56756C2.90114 3.58196 2.9947 3.56756 3.12424 3.52436C3.25378 3.48116 3.31855 3.47396 3.31855 3.50276C5.33361 3.35876 7.85245 3.28676 10.875 3.28676Z" fill="white"/>
</g>
<defs>
<clipPath id="clip0_1_897">
<rect width="21.59" height="21.6" fill="white" transform="matrix(1 0 0 -1 0.0800171 21.6899)"/>
</clipPath>
</defs>
</svg>
