<svg width="20" height="20" viewBox="0 0 20 20" fill="none" xmlns="http://www.w3.org/2000/svg">
<g clip-path="url(#clip0_1_881)">
<path d="M8.51511 3.28706L7.28222 3.75995C7.23718 3.77121 7.19778 3.79936 7.164 3.84439C7.13022 3.88943 7.11333 3.9401 7.11333 3.99639C7.11333 4.05269 7.13022 4.10336 7.164 4.14839C7.19778 4.19343 7.23718 4.22158 7.28222 4.23284L8.51511 4.70573L8.988 5.93861C8.99926 5.98365 9.02741 6.02306 9.07244 6.05684C9.11748 6.09061 9.16815 6.1075 9.22444 6.1075C9.28074 6.1075 9.33141 6.09061 9.37644 6.05684C9.42148 6.02306 9.44963 5.98365 9.46089 5.93861L9.93378 4.70573L11.1667 4.23284C11.2117 4.22158 11.2511 4.19343 11.2849 4.14839C11.3187 4.10336 11.3356 4.05269 11.3356 3.99639C11.3356 3.9401 11.3187 3.88943 11.2849 3.84439C11.2511 3.79936 11.2117 3.77121 11.1667 3.75995L9.93378 3.28706L9.46089 2.05417C9.44963 2.00913 9.42148 1.96973 9.37644 1.93595C9.33141 1.90217 9.28074 1.88528 9.22444 1.88528C9.16815 1.88528 9.11748 1.90217 9.07244 1.93595C9.02741 1.96973 8.99926 2.00913 8.988 2.05417L8.51511 3.28706ZM2.3 14.9235C1.996 15.2388 1.844 15.6131 1.844 16.0466C1.844 16.4801 1.996 16.8545 2.3 17.1697L3.44844 18.3182C3.65111 18.5208 3.88755 18.6559 4.15778 18.7235C4.428 18.7911 4.69822 18.7911 4.96844 18.7235C5.23867 18.6559 5.47511 18.5208 5.67778 18.3182L18.26 5.71906C18.5753 5.41506 18.7329 5.04632 18.7329 4.61284C18.7329 4.17936 18.5753 3.80499 18.26 3.48973L17.1116 2.34128C16.8076 2.03728 16.4388 1.88528 16.0053 1.88528C15.5719 1.88528 15.1975 2.03728 14.8822 2.34128L2.3 14.9235ZM16.7738 4.60439L13.2947 8.06661L12.5347 7.30661L15.9969 3.84439L16.7738 4.60439ZM1.03333 5.75284C0.954517 5.77536 0.892591 5.82039 0.847554 5.88795C0.802517 5.9555 0.779999 6.02869 0.779999 6.1075C0.779999 6.18632 0.802517 6.2595 0.847554 6.32706C0.892591 6.39461 0.954517 6.43965 1.03333 6.46217L2.89111 7.15461L3.58355 9.02928C3.65111 9.18691 3.77215 9.26573 3.94667 9.26573C4.12118 9.26573 4.24222 9.18691 4.30978 9.02928L5.00222 7.15461L6.86 6.46217C6.93881 6.43965 7.00074 6.39461 7.04578 6.32706C7.09081 6.2595 7.11333 6.18632 7.11333 6.1075C7.11333 6.02869 7.09081 5.9555 7.04578 5.88795C7.00074 5.82039 6.93881 5.77536 6.86 5.75284L5.00222 5.0435L4.30978 3.18573C4.276 3.10691 4.22815 3.04498 4.16622 2.99995C4.1043 2.95491 4.03392 2.93239 3.95511 2.93239C3.8763 2.93239 3.80311 2.95491 3.73555 2.99995C3.668 3.04498 3.61733 3.10691 3.58355 3.18573L2.89111 5.0435L1.03333 5.75284ZM12.636 14.1973C12.5572 14.2198 12.4981 14.2648 12.4587 14.3324C12.4193 14.3999 12.3996 14.4731 12.3996 14.5519C12.3996 14.6308 12.4193 14.7039 12.4587 14.7715C12.4981 14.8391 12.5572 14.8841 12.636 14.9066L14.5107 15.5991L15.2031 17.4737C15.2256 17.5525 15.2707 17.6145 15.3382 17.6595C15.4058 17.7045 15.479 17.7271 15.5578 17.7271C15.6366 17.7271 15.7098 17.7045 15.7773 17.6595C15.8449 17.6145 15.8899 17.5525 15.9124 17.4737L16.6218 15.5991L18.4796 14.9066C18.5584 14.8841 18.6203 14.8391 18.6653 14.7715C18.7104 14.7039 18.7329 14.6308 18.7329 14.5519C18.7329 14.4731 18.7104 14.3999 18.6653 14.3324C18.6203 14.2648 18.5584 14.2198 18.4796 14.1973L16.6218 13.4879L15.9124 11.6302C15.8899 11.5514 15.8449 11.4894 15.7773 11.4444C15.7098 11.3994 15.6366 11.3768 15.5578 11.3768C15.479 11.3768 15.4058 11.3994 15.3382 11.4444C15.2707 11.4894 15.2256 11.5514 15.2031 11.6302L14.5107 13.4879L12.636 14.1973Z" fill="#3596D1"/>
</g>
<defs>
<clipPath id="clip0_1_881">
<rect width="19" height="19" fill="white" transform="matrix(1 0 0 -1 0.779999 19.8298)"/>
</clipPath>
</defs>
</svg>
